<?xml version="1.0" encoding="utf-8"?>
<!-- Generator: Adobe Illustrator 23.0.6, SVG Export Plug-In . SVG Version: 6.00 Build 0)  -->
<svg version="1.1" id="Layer_1" xmlns="http://www.w3.org/2000/svg" xmlns:xlink="http://www.w3.org/1999/xlink" x="0px" y="0px"
	 viewBox="0 0 120 60" style="enable-background:new 0 0 120 60;" xml:space="preserve">
<style type="text/css">
	.st0{fill:#00358E;}
	.st1{fill:#FFFFFF;}
</style>
<g>
	<g>
		<path d="M48.61,27.19h-3.78v2.49h3.35v1.58h-3.35v2.64h3.78v1.62h-5.77v-9.96h5.77V27.19z"/>
		<path d="M53.52,27.5c1.04,0,2.04,0.48,2.58,1.23v-3.75h2.02v10.54H56.1v-1.17c-0.47,0.73-1.35,1.3-2.59,1.3
			c-2.01,0-3.6-1.64-3.6-4.1C49.9,29.08,51.5,27.5,53.52,27.5z M54.02,29.25c-1.07,0-2.08,0.8-2.08,2.29c0,1.5,1.01,2.35,2.08,2.35
			c1.1,0,2.09-0.83,2.09-2.32C56.12,30.08,55.12,29.25,54.02,29.25z"/>
		<path d="M59.86,25.52c0-0.66,0.51-1.17,1.23-1.17c0.7,0,1.23,0.51,1.23,1.17s-0.53,1.17-1.23,1.17
			C60.37,26.69,59.86,26.17,59.86,25.52z M60.08,27.63h1.99v7.89h-1.99V27.63z"/>
		<path d="M64.35,29.27h-0.94v-1.64h0.94v-1.95h2.01v1.95h1.77v1.64h-1.77v3.82c0,0.53,0.21,0.75,0.84,0.75h0.93v1.68h-1.25
			c-1.51,0-2.52-0.64-2.52-2.45v-3.8H64.35z"/>
		<path d="M72.95,25.58h1.99v9.94h-1.99V25.58z"/>
		<path d="M82.44,31.16c0-1.27-0.7-1.95-1.75-1.95c-1.08,0-1.78,0.68-1.78,1.95v4.36h-1.99v-7.89h1.99v0.98
			c0.51-0.67,1.37-1.1,2.38-1.1c1.84,0,3.15,1.2,3.15,3.38v4.63h-1.99v-4.36H82.44z"/>
		<path d="M89.35,35.65c-1.98,0-3.36-1.15-3.45-2.62h2.01c0.07,0.6,0.63,1.05,1.42,1.05c0.78,0,1.21-0.36,1.21-0.81
			c0-1.41-4.46-0.51-4.46-3.41c0-1.31,1.17-2.36,3.12-2.36c1.91,0,3.06,1.04,3.18,2.61h-1.91c-0.06-0.61-0.54-1.03-1.32-1.03
			c-0.74,0-1.13,0.3-1.13,0.75c0,1.44,4.37,0.54,4.43,3.43C92.46,34.62,91.28,35.65,89.35,35.65z"/>
		<path d="M93.88,25.52c0-0.66,0.51-1.17,1.23-1.17c0.7,0,1.23,0.51,1.23,1.17s-0.53,1.17-1.23,1.17
			C94.39,26.69,93.88,26.17,93.88,25.52z M94.1,27.63h1.99v7.89H94.1V27.63z"/>
		<path d="M101.16,27.5c1.04,0,2.04,0.48,2.58,1.23v-3.75h2.02v10.54h-2.02v-1.17c-0.47,0.73-1.35,1.3-2.59,1.3
			c-2.01,0-3.6-1.64-3.6-4.1C97.54,29.08,99.14,27.5,101.16,27.5z M101.66,29.25c-1.07,0-2.08,0.8-2.08,2.29
			c0,1.5,1.01,2.35,2.08,2.35c1.1,0,2.09-0.83,2.09-2.32C103.76,30.08,102.76,29.25,101.66,29.25z"/>
		<path d="M111.16,35.65c-2.29,0-3.96-1.6-3.96-4.07c0-2.49,1.62-4.07,3.96-4.07c2.28,0,3.89,1.55,3.89,3.9
			c0,0.26-0.01,0.51-0.06,0.77h-5.77c0.1,1.17,0.9,1.82,1.89,1.82c0.85,0,1.32-0.43,1.58-0.95h2.15
			C114.43,34.5,113.11,35.65,111.16,35.65z M109.24,30.83h3.75c-0.03-1.04-0.85-1.7-1.88-1.7C110.15,29.14,109.4,29.75,109.24,30.83
			z"/>
	</g>
	<g>
		<rect x="4.95" y="17.69" class="st0" width="32.17" height="24.61"/>
		<rect x="6.35" y="19.35" class="st1" width="17.19" height="21.29"/>
		<g>
			<rect x="9.15" y="28.15" class="st0" width="11.58" height="3.97"/>
			<rect x="7.88" y="21.27" class="st0" width="14.11" height="3.97"/>
			<rect x="7.88" y="34.76" class="st0" width="14.11" height="3.97"/>
		</g>
		<g>
			<rect x="28.51" y="25.58" class="st1" width="3.97" height="14.11"/>
			<rect x="28.51" y="20.31" class="st1" width="3.97" height="3.97"/>
		</g>
	</g>
</g>
</svg>
